<mxfile host="Electron" modified="2024-06-26T19:13:37.546Z" agent="Mozilla/5.0 (Windows NT 10.0; Win64; x64) AppleWebKit/537.36 (KHTML, like Gecko) draw.io/24.6.1 Chrome/124.0.6367.207 Electron/30.0.6 Safari/537.36" etag="aKpLjBirSEgYrg0cHSbZ" version="24.6.1" type="device">
  <diagram name="Page-1" id="c4acf3e9-155e-7222-9cf6-157b1a14988f">
    <mxGraphModel dx="4458" dy="1180" grid="1" gridSize="10" guides="1" tooltips="1" connect="1" arrows="1" fold="1" page="0" pageScale="1" pageWidth="850" pageHeight="1100" background="none" math="0" shadow="0">
      <root>
        <mxCell id="0" />
        <mxCell id="1" parent="0" />
        <mxCell id="OBtn1SHJ6FweN6-DnJZZ-156" value="" style="rounded=0;whiteSpace=wrap;html=1;fillColor=#e1d5e7;strokeColor=#9673a6;opacity=60;" parent="1" vertex="1">
          <mxGeometry x="-980" y="2210" width="2120" height="1010" as="geometry" />
        </mxCell>
        <mxCell id="OBtn1SHJ6FweN6-DnJZZ-155" value="" style="rounded=0;whiteSpace=wrap;html=1;fillColor=#eeeeee;strokeColor=#36393d;opacity=30;" parent="1" vertex="1">
          <mxGeometry x="-2070" y="1020" width="3370" height="2320" as="geometry" />
        </mxCell>
        <mxCell id="OBtn1SHJ6FweN6-DnJZZ-158" value="" style="rounded=0;whiteSpace=wrap;html=1;fillColor=#d5e8d4;strokeColor=#82b366;opacity=30;" parent="1" vertex="1">
          <mxGeometry x="-960" y="2410" width="1030" height="780" as="geometry" />
        </mxCell>
        <mxCell id="OBtn1SHJ6FweN6-DnJZZ-159" value="" style="rounded=0;whiteSpace=wrap;html=1;fillColor=#d5e8d4;strokeColor=#82b366;opacity=30;" parent="1" vertex="1">
          <mxGeometry x="90" y="2410" width="1030" height="390" as="geometry" />
        </mxCell>
        <mxCell id="OBtn1SHJ6FweN6-DnJZZ-160" value="" style="rounded=0;whiteSpace=wrap;html=1;fillColor=#dae8fc;strokeColor=#6c8ebf;opacity=30;" parent="1" vertex="1">
          <mxGeometry x="-950" y="2760" width="480" height="390" as="geometry" />
        </mxCell>
        <mxCell id="OBtn1SHJ6FweN6-DnJZZ-161" value="" style="rounded=0;whiteSpace=wrap;html=1;fillColor=#dae8fc;strokeColor=#6c8ebf;opacity=30;" parent="1" vertex="1">
          <mxGeometry x="-430" y="2760" width="480" height="390" as="geometry" />
        </mxCell>
        <mxCell id="OBtn1SHJ6FweN6-DnJZZ-151" value="" style="rounded=0;whiteSpace=wrap;html=1;fillColor=#fad7ac;strokeColor=#b46504;opacity=30;" parent="1" vertex="1">
          <mxGeometry x="1740" y="1630" width="850" height="990" as="geometry" />
        </mxCell>
        <mxCell id="OBtn1SHJ6FweN6-DnJZZ-153" value="" style="rounded=0;whiteSpace=wrap;html=1;fillColor=#b0e3e6;strokeColor=#0e8088;opacity=30;" parent="1" vertex="1">
          <mxGeometry x="1920" y="1710" width="480" height="740" as="geometry" />
        </mxCell>
        <mxCell id="OBtn1SHJ6FweN6-DnJZZ-147" value="" style="rounded=0;whiteSpace=wrap;html=1;fillColor=#f8cecc;strokeColor=#b85450;opacity=30;" parent="1" vertex="1">
          <mxGeometry x="1380" y="430" width="1460" height="1160" as="geometry" />
        </mxCell>
        <mxCell id="OBtn1SHJ6FweN6-DnJZZ-146" value="" style="rounded=0;whiteSpace=wrap;html=1;fillColor=#ffe6cc;strokeColor=#d79b00;opacity=30;" parent="1" vertex="1">
          <mxGeometry x="-270" y="50" width="1570" height="940" as="geometry" />
        </mxCell>
        <mxCell id="OBtn1SHJ6FweN6-DnJZZ-1" value="rmi" style="shape=umlFrame;whiteSpace=wrap;html=1;pointerEvents=0;width=90;height=40;fillColor=#fad7ac;strokeColor=#b46504;" parent="1" vertex="1">
          <mxGeometry x="-270" y="50" width="1570" height="940" as="geometry" />
        </mxCell>
        <mxCell id="OBtn1SHJ6FweN6-DnJZZ-2" value="&lt;p style=&quot;margin:0px;margin-top:4px;text-align:center;&quot;&gt;&lt;i&gt;&amp;lt;&amp;lt;Interface&amp;gt;&amp;gt;&lt;/i&gt;&lt;br&gt;&lt;b&gt;MainControllerInterface&lt;/b&gt;&lt;/p&gt;&lt;hr size=&quot;1&quot; style=&quot;border-style:solid;&quot;&gt;&lt;p style=&quot;margin:0px;margin-left:4px;&quot;&gt;&lt;span style=&quot;font-size: 14px; text-wrap: nowrap; background-color: initial;&quot;&gt;+ joinSpecificGame(GameListener, String, int): GameControllerInterface&lt;/span&gt;&lt;br&gt;&lt;/p&gt;&lt;p style=&quot;margin:0px;margin-left:4px;&quot;&gt;&lt;span style=&quot;font-size: 14px; text-wrap: nowrap;&quot;&gt;+ createGame(GameListener, String): GameControllerInterface&lt;/span&gt;&lt;br style=&quot;font-size: 14px; text-wrap: nowrap;&quot;&gt;&lt;span style=&quot;font-size: 14px; text-wrap: nowrap;&quot;&gt;+ reconnectToGame(GameListener, String): GameControllerInterface&lt;/span&gt;&lt;br style=&quot;font-size: 14px; text-wrap: nowrap;&quot;&gt;&lt;span style=&quot;font-size: 14px; text-wrap: nowrap;&quot;&gt;+ joinFirstAvailableGame(GameListener, String): GameControllerInterface&lt;/span&gt;&lt;br&gt;&lt;/p&gt;" style="verticalAlign=top;align=left;overflow=fill;html=1;whiteSpace=wrap;" parent="1" vertex="1">
          <mxGeometry x="570" y="100" width="510" height="130" as="geometry" />
        </mxCell>
        <mxCell id="OBtn1SHJ6FweN6-DnJZZ-3" value="&lt;p style=&quot;margin:0px;margin-top:4px;text-align:center;&quot;&gt;&lt;i&gt;&amp;lt;&amp;lt;Interface&amp;gt;&amp;gt;&lt;/i&gt;&lt;br&gt;&lt;b&gt;GameControllerInterface&lt;/b&gt;&lt;/p&gt;&lt;hr size=&quot;1&quot; style=&quot;border-style:solid;&quot;&gt;&lt;p style=&quot;margin:0px;margin-left:4px;&quot;&gt;&lt;span style=&quot;font-size: 14px; text-wrap: nowrap;&quot;&gt;+ ping(String): void&lt;/span&gt;&lt;br style=&quot;font-size: 14px; text-wrap: nowrap;&quot;&gt;&lt;span style=&quot;font-size: 14px; text-wrap: nowrap;&quot;&gt;+ placeStarterOnCodex(Player, Side): void&lt;/span&gt;&lt;br style=&quot;font-size: 14px; text-wrap: nowrap;&quot;&gt;&lt;span style=&quot;font-size: 14px; text-wrap: nowrap;&quot;&gt;+ selectCardObjective(Player, int): void&lt;/span&gt;&lt;br style=&quot;font-size: 14px; text-wrap: nowrap;&quot;&gt;&lt;span style=&quot;font-size: 14px; text-wrap: nowrap;&quot;&gt;+ updateGameSize(int): void&lt;/span&gt;&lt;br style=&quot;font-size: 14px; text-wrap: nowrap;&quot;&gt;&lt;span style=&quot;font-size: 14px; text-wrap: nowrap;&quot;&gt;+ leaveGame(String): void&lt;/span&gt;&lt;br style=&quot;font-size: 14px; text-wrap: nowrap;&quot;&gt;&lt;span style=&quot;font-size: 14px; text-wrap: nowrap;&quot;&gt;+ drawCardDisplayed(Player, DeckType, int): void&lt;/span&gt;&lt;br style=&quot;font-size: 14px; text-wrap: nowrap;&quot;&gt;&lt;span style=&quot;font-size: 14px; text-wrap: nowrap;&quot;&gt;+ placeCardOnCodex(Player, int, boolean, int, int): void&lt;/span&gt;&lt;br style=&quot;font-size: 14px; text-wrap: nowrap;&quot;&gt;&lt;span style=&quot;font-size: 14px; text-wrap: nowrap;&quot;&gt;+ sendChatMessage(ChatMessage): void&lt;/span&gt;&lt;br style=&quot;font-size: 14px; text-wrap: nowrap;&quot;&gt;&lt;span style=&quot;font-size: 14px; text-wrap: nowrap;&quot;&gt;+ drawCardFromDeck(Player, DeckType): void&lt;/span&gt;&lt;br&gt;&lt;/p&gt;" style="verticalAlign=top;align=left;overflow=fill;html=1;whiteSpace=wrap;" parent="1" vertex="1">
          <mxGeometry x="-50" y="90" width="510" height="200" as="geometry" />
        </mxCell>
        <mxCell id="OBtn1SHJ6FweN6-DnJZZ-22" style="edgeStyle=orthogonalEdgeStyle;rounded=0;orthogonalLoop=1;jettySize=auto;html=1;endArrow=block;endFill=0;dashed=1;" parent="1" source="OBtn1SHJ6FweN6-DnJZZ-4" target="OBtn1SHJ6FweN6-DnJZZ-21" edge="1">
          <mxGeometry relative="1" as="geometry" />
        </mxCell>
        <mxCell id="OBtn1SHJ6FweN6-DnJZZ-26" style="edgeStyle=orthogonalEdgeStyle;rounded=0;orthogonalLoop=1;jettySize=auto;html=1;entryX=0.5;entryY=1;entryDx=0;entryDy=0;" parent="1" source="OBtn1SHJ6FweN6-DnJZZ-4" target="OBtn1SHJ6FweN6-DnJZZ-3" edge="1">
          <mxGeometry relative="1" as="geometry" />
        </mxCell>
        <mxCell id="OBtn1SHJ6FweN6-DnJZZ-4" value="RmiClient" style="swimlane;fontStyle=1;align=center;verticalAlign=top;childLayout=stackLayout;horizontal=1;startSize=26;horizontalStack=0;resizeParent=1;resizeParentMax=0;resizeLast=0;collapsible=1;marginBottom=0;whiteSpace=wrap;html=1;" parent="1" vertex="1">
          <mxGeometry x="-140" y="350" width="410" height="580" as="geometry" />
        </mxCell>
        <mxCell id="OBtn1SHJ6FweN6-DnJZZ-5" value="&lt;p style=&quot;margin:0 0 0 4px;line-height:1.6;&quot;&gt;- mainController: MainControllerInterface&lt;br&gt;- ip: String&lt;br&gt;- gameController: GameControllerInterface&lt;br&gt;- gameListenerHandlerClient: GameListenerHandlerClient&lt;br&gt;- flow: Flow&lt;br&gt;- pingExecutor: ScheduledExecutorService&lt;br&gt;- gameListener: GameListener&lt;br&gt;- port: int&lt;br&gt;- rmiRegistry: Registry&lt;br&gt;- nicknameClient: String&lt;/p&gt;" style="text;strokeColor=none;fillColor=none;align=left;verticalAlign=top;spacingLeft=4;spacingRight=4;overflow=hidden;rotatable=0;points=[[0,0.5],[1,0.5]];portConstraint=eastwest;whiteSpace=wrap;html=1;" parent="OBtn1SHJ6FweN6-DnJZZ-4" vertex="1">
          <mxGeometry y="26" width="410" height="204" as="geometry" />
        </mxCell>
        <mxCell id="OBtn1SHJ6FweN6-DnJZZ-6" value="" style="line;strokeWidth=1;fillColor=none;align=left;verticalAlign=middle;spacingTop=-1;spacingLeft=3;spacingRight=3;rotatable=0;labelPosition=right;points=[];portConstraint=eastwest;strokeColor=inherit;" parent="OBtn1SHJ6FweN6-DnJZZ-4" vertex="1">
          <mxGeometry y="230" width="410" height="8" as="geometry" />
        </mxCell>
        <mxCell id="OBtn1SHJ6FweN6-DnJZZ-7" value="&lt;p style=&quot;margin:0 0 0 4px;line-height:1.6;&quot;&gt;+ leaveGame(String): void&lt;br&gt;- connectToGameServer(): void&lt;br&gt;- connectToServer(): void&lt;br&gt;+ disconnectFromServer(): void&lt;br&gt;+ selectCardObjective(Player, int): void&lt;br&gt;+ joinFirstAvailableGame(String): void&lt;br&gt;+ placeCardOnCodex(Player, int, boolean, int, int): void&lt;br&gt;+ gameSizeUpdated(int): void&lt;br&gt;+ sendChatMessage(ChatMessage): void&lt;br&gt;+ drawCardDisplayed(Player, DeckType, int): void&lt;br&gt;- setupConnection(): void&lt;br&gt;+ placeStarterOnCodex(Player, Side): void&lt;br&gt;+ drawCardFromDeck(Player, DeckType): void&lt;br&gt;+ sendPing(String): void&lt;br&gt;+ reconnectToGame(String): void&lt;br&gt;+ createGame(String): void&lt;br&gt;+ joinSpecificGame(String, int): void&lt;/p&gt;" style="text;strokeColor=none;fillColor=none;align=left;verticalAlign=top;spacingLeft=4;spacingRight=4;overflow=hidden;rotatable=0;points=[[0,0.5],[1,0.5]];portConstraint=eastwest;whiteSpace=wrap;html=1;" parent="OBtn1SHJ6FweN6-DnJZZ-4" vertex="1">
          <mxGeometry y="238" width="410" height="342" as="geometry" />
        </mxCell>
        <mxCell id="OBtn1SHJ6FweN6-DnJZZ-24" style="edgeStyle=orthogonalEdgeStyle;rounded=0;orthogonalLoop=1;jettySize=auto;html=1;entryX=0.5;entryY=1;entryDx=0;entryDy=0;endArrow=block;endFill=0;dashed=1;" parent="1" source="OBtn1SHJ6FweN6-DnJZZ-9" target="OBtn1SHJ6FweN6-DnJZZ-2" edge="1">
          <mxGeometry relative="1" as="geometry" />
        </mxCell>
        <mxCell id="OBtn1SHJ6FweN6-DnJZZ-9" value="&lt;b&gt;RmiServer&lt;/b&gt;" style="swimlane;fontStyle=1;align=center;verticalAlign=top;childLayout=stackLayout;horizontal=1;startSize=26;horizontalStack=0;resizeParent=1;resizeParentMax=0;resizeLast=0;collapsible=1;marginBottom=0;whiteSpace=wrap;html=1;" parent="1" vertex="1">
          <mxGeometry x="580" y="430" width="410" height="340" as="geometry" />
        </mxCell>
        <mxCell id="OBtn1SHJ6FweN6-DnJZZ-10" value="&lt;p style=&quot;margin:0 0 0 4px;line-height:1.6;&quot;&gt;- mainController: MainController&lt;br&gt;- isRmiServerRunning: boolean&lt;br&gt;- rmiRegistry: Registry&lt;br&gt;- rmiServer: RmiServer&lt;/p&gt;" style="text;strokeColor=none;fillColor=none;align=left;verticalAlign=top;spacingLeft=4;spacingRight=4;overflow=hidden;rotatable=0;points=[[0,0.5],[1,0.5]];portConstraint=eastwest;whiteSpace=wrap;html=1;" parent="OBtn1SHJ6FweN6-DnJZZ-9" vertex="1">
          <mxGeometry y="26" width="410" height="94" as="geometry" />
        </mxCell>
        <mxCell id="OBtn1SHJ6FweN6-DnJZZ-11" value="" style="line;strokeWidth=1;fillColor=none;align=left;verticalAlign=middle;spacingTop=-1;spacingLeft=3;spacingRight=3;rotatable=0;labelPosition=right;points=[];portConstraint=eastwest;strokeColor=inherit;" parent="OBtn1SHJ6FweN6-DnJZZ-9" vertex="1">
          <mxGeometry y="120" width="410" height="8" as="geometry" />
        </mxCell>
        <mxCell id="OBtn1SHJ6FweN6-DnJZZ-12" value="&lt;p style=&quot;margin:0 0 0 4px;line-height:1.6;&quot;&gt;+ startRmiServer(int): void&lt;br&gt;+ stopRmiServer(): void&lt;br&gt;+ getRmiRegistry(): Registry&lt;br&gt;+ joinSpecificGame(GameListener, String, int): GameControllerInterface&lt;br&gt;+ reconnectToGame(GameListener, String): GameControllerInterface&lt;br&gt;- exportObjectIfNeeded(GameControllerInterface): void&lt;br&gt;+ isRmiServerRunning(): boolean&lt;br&gt;+ createGame(GameListener, String): GameControllerInterface&lt;br&gt;+ joinFirstAvailableGame(GameListener, String): GameControllerInterface&lt;br&gt;+ getRmiServer(): RmiServer&lt;br&gt;&lt;/p&gt;" style="text;strokeColor=none;fillColor=none;align=left;verticalAlign=top;spacingLeft=4;spacingRight=4;overflow=hidden;rotatable=0;points=[[0,0.5],[1,0.5]];portConstraint=eastwest;whiteSpace=wrap;html=1;" parent="OBtn1SHJ6FweN6-DnJZZ-9" vertex="1">
          <mxGeometry y="128" width="410" height="212" as="geometry" />
        </mxCell>
        <mxCell id="OBtn1SHJ6FweN6-DnJZZ-21" value="&lt;p style=&quot;margin:0px;margin-top:4px;text-align:center;&quot;&gt;&lt;i&gt;&amp;lt;&amp;lt;Interface&amp;gt;&amp;gt;&lt;/i&gt;&lt;br&gt;&lt;b&gt;ClientAction&lt;/b&gt;&lt;/p&gt;&lt;hr size=&quot;1&quot; style=&quot;border-style:solid;&quot;&gt;&lt;p style=&quot;margin:0px;margin-left:4px;&quot;&gt;+ sendPing(String): void&lt;br&gt;+ selectCardObjective(Player, int): void&lt;br&gt;+ gameSizeUpdated(int): void&lt;br&gt;+ reconnectToGame(String): void&lt;br&gt;+ placeCardOnCodex(Player, int, boolean, int, int): void&lt;br&gt;+ joinFirstAvailableGame(String): void&lt;br&gt;+ drawCardFromDeck(Player, DeckType): void&lt;br&gt;+ placeStarterOnCodex(Player, Side): void&lt;br&gt;+ drawCardDisplayed(Player, DeckType, int): void&lt;br&gt;+ leaveGame(String): void&lt;br&gt;+ joinSpecificGame(String, int): void&lt;br&gt;+ createGame(String): void&lt;br&gt;+ sendChatMessage(ChatMessage): void&lt;br&gt;&lt;/p&gt;" style="verticalAlign=top;align=left;overflow=fill;html=1;whiteSpace=wrap;" parent="1" vertex="1">
          <mxGeometry x="-190" y="1080" width="510" height="240" as="geometry" />
        </mxCell>
        <mxCell id="OBtn1SHJ6FweN6-DnJZZ-25" value="implements" style="text;html=1;align=center;verticalAlign=middle;resizable=0;points=[];autosize=1;strokeColor=none;fillColor=none;" parent="1" vertex="1">
          <mxGeometry x="745" y="300" width="80" height="30" as="geometry" />
        </mxCell>
        <mxCell id="OBtn1SHJ6FweN6-DnJZZ-27" value="socket" style="shape=umlFrame;whiteSpace=wrap;html=1;pointerEvents=0;width=90;height=40;fillColor=#eeeeee;strokeColor=#36393d;" parent="1" vertex="1">
          <mxGeometry x="-2070" y="1020" width="3370" height="2320" as="geometry" />
        </mxCell>
        <mxCell id="OBtn1SHJ6FweN6-DnJZZ-29" value="&lt;p style=&quot;margin:0px;margin-top:4px;text-align:center;&quot;&gt;&lt;i&gt;&amp;lt;&amp;lt;Interface&amp;gt;&amp;gt;&lt;/i&gt;&lt;br&gt;&lt;b&gt;GameListener&lt;/b&gt;&lt;br&gt;&lt;/p&gt;&lt;hr size=&quot;1&quot; style=&quot;border-style:solid;&quot;&gt;&lt;hr size=&quot;1&quot;&gt;&lt;p style=&quot;margin:0 0 0 4px;line-height:1.6;&quot;&gt;+ addedPoint(GameImmutable, Player, int): void&lt;br&gt;+ objectiveCardNotChosen(GameImmutable): void&lt;br&gt;+ requirementsPlacementNotRespected(GameImmutable, ArrayList&amp;lt;Value&amp;gt;): void&lt;br&gt;+ endGameConditionsReached(GameImmutable): void&lt;br&gt;+ cardAddedToHand(GameImmutable, Card): void&lt;br&gt;+ gameEnded(GameImmutable): void&lt;br&gt;+ playerReconnected(GameImmutable, String): void&lt;br&gt;+ sentChatMessage(GameImmutable, ChatMessage): void&lt;br&gt;+ cardNotAddedToHand(GameImmutable, String): void&lt;br&gt;+ invalidCoordinates(GameImmutable, int, int): void&lt;br&gt;+ objectiveCardChosen(GameImmutable, CardObjective, String): void&lt;br&gt;+ playerDisconnected(GameImmutable, String): void&lt;br&gt;+ gameStarted(GameImmutable): void&lt;br&gt;+ drawCard(GameImmutable, String): void&lt;br&gt;+ noGameToReconnect(GameImmutable, String): void&lt;br&gt;+ indexNotValid(GameImmutable, int): void&lt;br&gt;+ winnerDeclared(GameImmutable, ArrayList&amp;lt;String&amp;gt;): void&lt;br&gt;+ lastCircle(GameImmutable): void&lt;br&gt;+ nextTurn(GameImmutable): void&lt;br&gt;+ deckHasNoCards(GameImmutable, ArrayList&amp;lt;Card&amp;gt;): void&lt;br&gt;+ positionedCardIntoCodex(GameImmutable, int, int): void&lt;br&gt;+ joinUnableNicknameAlreadyInUse(Player): void&lt;br&gt;+ playerLeft(GameImmutable, String): void&lt;br&gt;+ canNotPlaceCard(GameImmutable, String): void&lt;br&gt;+ gameSizeUpdated(GameImmutable, int): void&lt;br&gt;+ joinUnableGameFull(GameImmutable, Player): void&lt;br&gt;+ gameCreated(GameImmutable): void&lt;br&gt;+ playerJoined(GameImmutable): void&lt;br&gt;+ gameIdNotExists(int): void&lt;br&gt;+ positionedStarterCardIntoCodex(GameImmutable, String): void&lt;br&gt;+ onlyOnePlayerConnected(GameImmutable, int): void&lt;br&gt;+ addedPointObjective(GameImmutable, int): void&lt;/p&gt;" style="verticalAlign=top;align=left;overflow=fill;html=1;whiteSpace=wrap;" parent="1" vertex="1">
          <mxGeometry x="1470" y="650" width="510" height="680" as="geometry" />
        </mxCell>
        <mxCell id="OBtn1SHJ6FweN6-DnJZZ-134" style="edgeStyle=orthogonalEdgeStyle;rounded=0;orthogonalLoop=1;jettySize=auto;html=1;entryX=1;entryY=0.5;entryDx=0;entryDy=0;" parent="1" source="OBtn1SHJ6FweN6-DnJZZ-33" target="OBtn1SHJ6FweN6-DnJZZ-29" edge="1">
          <mxGeometry relative="1" as="geometry" />
        </mxCell>
        <mxCell id="OBtn1SHJ6FweN6-DnJZZ-30" value="&lt;b&gt;ListenersHandler&lt;/b&gt;" style="swimlane;fontStyle=1;align=center;verticalAlign=top;childLayout=stackLayout;horizontal=1;startSize=26;horizontalStack=0;resizeParent=1;resizeParentMax=0;resizeLast=0;collapsible=1;marginBottom=0;whiteSpace=wrap;html=1;" parent="1" vertex="1">
          <mxGeometry x="2130" y="620" width="440" height="750" as="geometry" />
        </mxCell>
        <mxCell id="OBtn1SHJ6FweN6-DnJZZ-31" value="&lt;p style=&quot;margin:0 0 0 4px;line-height:1.6;&quot;&gt;- gameListeners: ArrayList&amp;lt;GameListener&amp;gt;&lt;/p&gt;" style="text;strokeColor=none;fillColor=none;align=left;verticalAlign=top;spacingLeft=4;spacingRight=4;overflow=hidden;rotatable=0;points=[[0,0.5],[1,0.5]];portConstraint=eastwest;whiteSpace=wrap;html=1;" parent="OBtn1SHJ6FweN6-DnJZZ-30" vertex="1">
          <mxGeometry y="26" width="440" height="44" as="geometry" />
        </mxCell>
        <mxCell id="OBtn1SHJ6FweN6-DnJZZ-32" value="" style="line;strokeWidth=1;fillColor=none;align=left;verticalAlign=middle;spacingTop=-1;spacingLeft=3;spacingRight=3;rotatable=0;labelPosition=right;points=[];portConstraint=eastwest;strokeColor=inherit;" parent="OBtn1SHJ6FweN6-DnJZZ-30" vertex="1">
          <mxGeometry y="70" width="440" height="8" as="geometry" />
        </mxCell>
        <mxCell id="OBtn1SHJ6FweN6-DnJZZ-33" value="&lt;p style=&quot;margin:0 0 0 4px;line-height:1.6;&quot;&gt;+ addListener(GameListener): void&lt;br&gt;+ notifyPlayerDisconnected(Game, String): void&lt;br&gt;+ notifyPositionedStarterCardIntoCodex(Game, String): void&lt;br&gt;+ notifyRequirementsPlacementNotRespected(Game, ArrayList&amp;lt;Value&amp;gt;): void&lt;br&gt;+ notifyAddedPoint(Game, Player, int): void&lt;br&gt;+ removeListener(GameListener): void&lt;br&gt;+ notifySentChatMessage(Game, ChatMessage): void&lt;br&gt;+ notifyPlayerReconnected(Game, String): void&lt;br&gt;+ notifyCardNotAddedToHand(Game, String): void&lt;br&gt;+ notifyGameCreated(Game): void&lt;br&gt;+ notifyPositionedCardIntoCodex(Game, int, int): void&lt;br&gt;+ notifyNextTurn(Game): void&lt;br&gt;+ notifyDrawCard(Game, String): void&lt;br&gt;+ notifyCanNotPlaceCard(Game, String): void&lt;br&gt;+ notifyGameStarted(Game): void&lt;br&gt;+ notifyLastCircle(Game): void&lt;br&gt;+ getGameListeners(): ArrayList&amp;lt;GameListener&amp;gt;&lt;br&gt;+ notifyJoinUnableGameFull(Game, Player): void&lt;br&gt;+ notifyInvalidCoordinates(Game, int, int): void&lt;br&gt;+ notifyGameEnded(Game): void&lt;br&gt;+ notifyWinnerDeclared(Game, ArrayList&amp;lt;String&amp;gt;): void&lt;br&gt;+ notifyOnlyOnePlayerConnected(Game, int): void&lt;br&gt;+ notifyObjectiveCardNotChosen(Game): void&lt;br&gt;+ notifyGameIdNotExists(int): void&lt;br&gt;+ notifyPlayerLeft(Game, String): void&lt;br&gt;+ notifyCardAddedToHand(Game, Card): void&lt;br&gt;+ notifyIndexNotValid(Game, ArrayList&amp;lt;Card&amp;gt;): void&lt;br&gt;+ notifyPlayerJoined(Game): void&lt;br&gt;+ notifyAddedPointObjective(Game, int): void&lt;br&gt;+ notifyIndexNotValid(Game, int): void&lt;br&gt;+ notifyObjectiveCardChosen(Game, CardObjective, String): void&lt;br&gt;+ notifyJoinUnableNicknameAlreadyInUse(Player): void&lt;br&gt;+ notifyEndConditionReached(Game): void&lt;br&gt;+ notifyGameSizeUpdated(Game, int): void&lt;br&gt;&lt;/p&gt;" style="text;strokeColor=none;fillColor=none;align=left;verticalAlign=top;spacingLeft=4;spacingRight=4;overflow=hidden;rotatable=0;points=[[0,0.5],[1,0.5]];portConstraint=eastwest;whiteSpace=wrap;html=1;" parent="OBtn1SHJ6FweN6-DnJZZ-30" vertex="1">
          <mxGeometry y="78" width="440" height="672" as="geometry" />
        </mxCell>
        <mxCell id="OBtn1SHJ6FweN6-DnJZZ-41" style="edgeStyle=orthogonalEdgeStyle;rounded=0;orthogonalLoop=1;jettySize=auto;html=1;entryX=0.5;entryY=1;entryDx=0;entryDy=0;dashed=1;endArrow=block;endFill=0;" parent="1" source="OBtn1SHJ6FweN6-DnJZZ-37" target="OBtn1SHJ6FweN6-DnJZZ-21" edge="1">
          <mxGeometry relative="1" as="geometry" />
        </mxCell>
        <mxCell id="OBtn1SHJ6FweN6-DnJZZ-46" style="edgeStyle=orthogonalEdgeStyle;rounded=0;orthogonalLoop=1;jettySize=auto;html=1;exitX=0;exitY=0.5;exitDx=0;exitDy=0;" parent="1" source="OBtn1SHJ6FweN6-DnJZZ-40" target="OBtn1SHJ6FweN6-DnJZZ-45" edge="1">
          <mxGeometry relative="1" as="geometry" />
        </mxCell>
        <mxCell id="OBtn1SHJ6FweN6-DnJZZ-109" style="edgeStyle=orthogonalEdgeStyle;rounded=0;orthogonalLoop=1;jettySize=auto;html=1;entryX=0.25;entryY=0;entryDx=0;entryDy=0;exitX=1;exitY=0.5;exitDx=0;exitDy=0;" parent="1" source="OBtn1SHJ6FweN6-DnJZZ-40" target="OBtn1SHJ6FweN6-DnJZZ-90" edge="1">
          <mxGeometry relative="1" as="geometry" />
        </mxCell>
        <mxCell id="OBtn1SHJ6FweN6-DnJZZ-37" value="&lt;p style=&quot;margin: 4px 0px 0px;&quot;&gt;&lt;b&gt;SocketClient&lt;/b&gt;&lt;/p&gt;" style="swimlane;fontStyle=1;align=center;verticalAlign=top;childLayout=stackLayout;horizontal=1;startSize=26;horizontalStack=0;resizeParent=1;resizeParentMax=0;resizeLast=0;collapsible=1;marginBottom=0;whiteSpace=wrap;html=1;" parent="1" vertex="1">
          <mxGeometry x="-1150" y="1380" width="410" height="560" as="geometry" />
        </mxCell>
        <mxCell id="OBtn1SHJ6FweN6-DnJZZ-38" value="&lt;p style=&quot;margin:0 0 0 4px;line-height:1.6;&quot;&gt;- nicknameClient: String&lt;br&gt;- pingExecutor: ScheduledExecutorService&lt;br&gt;- inputStream: ObjectInputStream&lt;br&gt;- messageActionHandler: GameListenerHandlerClient&lt;br&gt;- socketClient: Socket&lt;br&gt;- outputStream: ObjectOutputStream&lt;br&gt;- executorService: ExecutorService&lt;br&gt;- flow: Flow&lt;/p&gt;" style="text;strokeColor=none;fillColor=none;align=left;verticalAlign=top;spacingLeft=4;spacingRight=4;overflow=hidden;rotatable=0;points=[[0,0.5],[1,0.5]];portConstraint=eastwest;whiteSpace=wrap;html=1;" parent="OBtn1SHJ6FweN6-DnJZZ-37" vertex="1">
          <mxGeometry y="26" width="410" height="164" as="geometry" />
        </mxCell>
        <mxCell id="OBtn1SHJ6FweN6-DnJZZ-39" value="" style="line;strokeWidth=1;fillColor=none;align=left;verticalAlign=middle;spacingTop=-1;spacingLeft=3;spacingRight=3;rotatable=0;labelPosition=right;points=[];portConstraint=eastwest;strokeColor=inherit;" parent="OBtn1SHJ6FweN6-DnJZZ-37" vertex="1">
          <mxGeometry y="190" width="410" height="8" as="geometry" />
        </mxCell>
        <mxCell id="OBtn1SHJ6FweN6-DnJZZ-40" value="&lt;p style=&quot;margin:0 0 0 4px;line-height:1.6;&quot;&gt;+ leaveGame(String): void&lt;br&gt;+ drawCardFromDeck(Player, DeckType): void&lt;br&gt;+ startConnection(String, int): void&lt;br&gt;+ sendChatMessage(ChatMessage): void&lt;br&gt;- completeTransmission(): void&lt;br&gt;- shutdownAndExit(): void&lt;br&gt;+ createGame(String): void&lt;br&gt;- processMessages(): void&lt;br&gt;+ joinSpecificGame(String, int): void&lt;br&gt;+ selectCardObjective(Player, int): void&lt;br&gt;+ reconnectToGame(String): void&lt;br&gt;+ stopConnection(): void&lt;br&gt;+ drawCardDisplayed(Player, DeckType, int): void&lt;br&gt;+ joinFirstAvailableGame(String): void&lt;br&gt;+ sendPing(String): void&lt;br&gt;+ gameSizeUpdated(int): void&lt;br&gt;+ placeCardOnCodex(Player, int, boolean, int, int): void&lt;br&gt;+ placeStarterOnCodex(Player, Side): void&lt;br&gt;&lt;/p&gt;" style="text;strokeColor=none;fillColor=none;align=left;verticalAlign=top;spacingLeft=4;spacingRight=4;overflow=hidden;rotatable=0;points=[[0,0.5],[1,0.5]];portConstraint=eastwest;whiteSpace=wrap;html=1;" parent="OBtn1SHJ6FweN6-DnJZZ-37" vertex="1">
          <mxGeometry y="198" width="410" height="362" as="geometry" />
        </mxCell>
        <mxCell id="OBtn1SHJ6FweN6-DnJZZ-130" style="edgeStyle=orthogonalEdgeStyle;rounded=0;orthogonalLoop=1;jettySize=auto;html=1;entryX=0.5;entryY=1;entryDx=0;entryDy=0;dashed=1;endArrow=block;endFill=0;" parent="1" source="OBtn1SHJ6FweN6-DnJZZ-42" target="OBtn1SHJ6FweN6-DnJZZ-29" edge="1">
          <mxGeometry relative="1" as="geometry">
            <Array as="points">
              <mxPoint x="-1565" y="3410" />
              <mxPoint x="1725" y="3410" />
            </Array>
          </mxGeometry>
        </mxCell>
        <mxCell id="OBtn1SHJ6FweN6-DnJZZ-42" value="&lt;p style=&quot;margin: 4px 0px 0px;&quot;&gt;&lt;b&gt;GameListenerHandlerClient&lt;/b&gt;&lt;br&gt;&lt;/p&gt;" style="swimlane;fontStyle=1;align=center;verticalAlign=top;childLayout=stackLayout;horizontal=1;startSize=26;horizontalStack=0;resizeParent=1;resizeParentMax=0;resizeLast=0;collapsible=1;marginBottom=0;whiteSpace=wrap;html=1;" parent="1" vertex="1">
          <mxGeometry x="-1770" y="1365" width="410" height="720" as="geometry" />
        </mxCell>
        <mxCell id="OBtn1SHJ6FweN6-DnJZZ-43" value="&lt;p style=&quot;margin:0 0 0 4px;line-height:1.6;&quot;&gt;- flow: Flow&lt;/p&gt;" style="text;strokeColor=none;fillColor=none;align=left;verticalAlign=top;spacingLeft=4;spacingRight=4;overflow=hidden;rotatable=0;points=[[0,0.5],[1,0.5]];portConstraint=eastwest;whiteSpace=wrap;html=1;" parent="OBtn1SHJ6FweN6-DnJZZ-42" vertex="1">
          <mxGeometry y="26" width="410" height="34" as="geometry" />
        </mxCell>
        <mxCell id="OBtn1SHJ6FweN6-DnJZZ-44" value="" style="line;strokeWidth=1;fillColor=none;align=left;verticalAlign=middle;spacingTop=-1;spacingLeft=3;spacingRight=3;rotatable=0;labelPosition=right;points=[];portConstraint=eastwest;strokeColor=inherit;" parent="OBtn1SHJ6FweN6-DnJZZ-42" vertex="1">
          <mxGeometry y="60" width="410" height="8" as="geometry" />
        </mxCell>
        <mxCell id="OBtn1SHJ6FweN6-DnJZZ-45" value="&lt;p style=&quot;margin:0 0 0 4px;line-height:1.6;&quot;&gt;+ cardNotAddedToHand(GameImmutable, String): void&lt;br&gt;+ playerJoined(GameImmutable): void&lt;br&gt;+ onlyOnePlayerConnected(GameImmutable, int): void&lt;br&gt;+ playerLeft(GameImmutable, String): void&lt;br&gt;+ playerReconnected(GameImmutable, String): void&lt;br&gt;+ endGameConditionsReached(GameImmutable): void&lt;br&gt;+ cardAddedToHand(GameImmutable, Card): void&lt;br&gt;+ canNotPlaceCard(GameImmutable, String): void&lt;br&gt;+ playerDisconnected(GameImmutable, String): void&lt;br&gt;+ invalidCoordinates(GameImmutable, int, int): void&lt;br&gt;+ addedPointObjective(GameImmutable, int): void&lt;br&gt;+ gameEnded(GameImmutable): void&lt;br&gt;+ gameIdNotExists(int): void&lt;br&gt;+ indexNotValid(GameImmutable, int): void&lt;br&gt;+ requirementsPlacementNotRespected(GameImmutable, ArrayList&amp;lt;Value&amp;gt;): void&lt;br&gt;+ sentChatMessage(GameImmutable, ChatMessage): void&lt;br&gt;+ addedPoint(GameImmutable, Player, int): void&lt;br&gt;+ deckHasNoCards(GameImmutable, ArrayList&amp;lt;Card&amp;gt;): void&lt;br&gt;+ objectiveCardChosen(GameImmutable, CardObjective, String): void&lt;br&gt;+ positionedStarterCardIntoCodex(GameImmutable, String): void&lt;br&gt;+ noGameToReconnect(GameImmutable, String): void&lt;br&gt;+ gameStarted(GameImmutable): void&lt;br&gt;+ joinUnableGameFull(GameImmutable, Player): void&lt;br&gt;+ joinUnableNicknameAlreadyInUse(Player): void&lt;br&gt;+ positionedCardIntoCodex(GameImmutable, int, int): void&lt;br&gt;+ nextTurn(GameImmutable): void&lt;br&gt;+ winnerDeclared(GameImmutable, ArrayList&amp;lt;String&amp;gt;): void&lt;br&gt;+ gameCreated(GameImmutable): void&lt;br&gt;+ objectiveCardNotChosen(GameImmutable): void&lt;br&gt;+ gameSizeUpdated(GameImmutable, int): void&lt;br&gt;+ lastCircle(GameImmutable): void&lt;br&gt;+ drawCard(GameImmutable, String): void&lt;/p&gt;" style="text;strokeColor=none;fillColor=none;align=left;verticalAlign=top;spacingLeft=4;spacingRight=4;overflow=hidden;rotatable=0;points=[[0,0.5],[1,0.5]];portConstraint=eastwest;whiteSpace=wrap;html=1;" parent="OBtn1SHJ6FweN6-DnJZZ-42" vertex="1">
          <mxGeometry y="68" width="410" height="652" as="geometry" />
        </mxCell>
        <mxCell id="OBtn1SHJ6FweN6-DnJZZ-51" value="messages" style="shape=umlFrame;whiteSpace=wrap;html=1;pointerEvents=0;width=90;height=40;fillColor=#e1d5e7;strokeColor=#9673a6;" parent="1" vertex="1">
          <mxGeometry x="-980" y="2210" width="2120" height="1010" as="geometry" />
        </mxCell>
        <mxCell id="OBtn1SHJ6FweN6-DnJZZ-52" value="clientToServerMessages" style="shape=umlFrame;whiteSpace=wrap;html=1;pointerEvents=0;width=150;height=50;fillColor=#d5e8d4;strokeColor=#82b366;" parent="1" vertex="1">
          <mxGeometry x="-960" y="2410" width="1030" height="780" as="geometry" />
        </mxCell>
        <mxCell id="OBtn1SHJ6FweN6-DnJZZ-53" value="serverToClientMessages" style="shape=umlFrame;whiteSpace=wrap;html=1;pointerEvents=0;width=150;height=40;fillColor=#d5e8d4;strokeColor=#82b366;" parent="1" vertex="1">
          <mxGeometry x="90" y="2410" width="1030" height="390" as="geometry" />
        </mxCell>
        <mxCell id="OBtn1SHJ6FweN6-DnJZZ-54" value="gameControllerMessages" style="shape=umlFrame;whiteSpace=wrap;html=1;pointerEvents=0;width=150;height=50;fillColor=#dae8fc;strokeColor=#6c8ebf;" parent="1" vertex="1">
          <mxGeometry x="-950" y="2760" width="480" height="390" as="geometry" />
        </mxCell>
        <mxCell id="OBtn1SHJ6FweN6-DnJZZ-55" value="mainControllerMessages" style="shape=umlFrame;whiteSpace=wrap;html=1;pointerEvents=0;width=150;height=50;fillColor=#dae8fc;strokeColor=#6c8ebf;" parent="1" vertex="1">
          <mxGeometry x="-430" y="2760" width="480" height="390" as="geometry" />
        </mxCell>
        <mxCell id="OBtn1SHJ6FweN6-DnJZZ-108" style="edgeStyle=orthogonalEdgeStyle;rounded=0;orthogonalLoop=1;jettySize=auto;html=1;entryX=1;entryY=0.5;entryDx=0;entryDy=0;" parent="1" source="OBtn1SHJ6FweN6-DnJZZ-56" target="OBtn1SHJ6FweN6-DnJZZ-81" edge="1">
          <mxGeometry relative="1" as="geometry">
            <Array as="points">
              <mxPoint x="560" y="2285" />
            </Array>
          </mxGeometry>
        </mxCell>
        <mxCell id="OBtn1SHJ6FweN6-DnJZZ-56" value="&lt;p style=&quot;margin: 4px 0px 0px;&quot;&gt;&lt;b&gt;SocketServerGenericMessage&lt;/b&gt;&lt;br&gt;&lt;/p&gt;" style="swimlane;fontStyle=1;align=center;verticalAlign=top;childLayout=stackLayout;horizontal=1;startSize=26;horizontalStack=0;resizeParent=1;resizeParentMax=0;resizeLast=0;collapsible=1;marginBottom=0;whiteSpace=wrap;html=1;" parent="1" vertex="1">
          <mxGeometry x="380" y="2460" width="410" height="80" as="geometry" />
        </mxCell>
        <mxCell id="OBtn1SHJ6FweN6-DnJZZ-57" value="&lt;p style=&quot;margin:0 0 0 4px;line-height:1.6;&quot;&gt;&lt;br&gt;&lt;/p&gt;" style="text;strokeColor=none;fillColor=none;align=left;verticalAlign=top;spacingLeft=4;spacingRight=4;overflow=hidden;rotatable=0;points=[[0,0.5],[1,0.5]];portConstraint=eastwest;whiteSpace=wrap;html=1;" parent="OBtn1SHJ6FweN6-DnJZZ-56" vertex="1">
          <mxGeometry y="26" width="410" height="14" as="geometry" />
        </mxCell>
        <mxCell id="OBtn1SHJ6FweN6-DnJZZ-58" value="" style="line;strokeWidth=1;fillColor=none;align=left;verticalAlign=middle;spacingTop=-1;spacingLeft=3;spacingRight=3;rotatable=0;labelPosition=right;points=[];portConstraint=eastwest;strokeColor=inherit;" parent="OBtn1SHJ6FweN6-DnJZZ-56" vertex="1">
          <mxGeometry y="40" width="410" height="8" as="geometry" />
        </mxCell>
        <mxCell id="OBtn1SHJ6FweN6-DnJZZ-59" value="&lt;p style=&quot;margin:0 0 0 4px;line-height:1.6;&quot;&gt;+ execute(GameListener): void&lt;/p&gt;" style="text;strokeColor=none;fillColor=none;align=left;verticalAlign=top;spacingLeft=4;spacingRight=4;overflow=hidden;rotatable=0;points=[[0,0.5],[1,0.5]];portConstraint=eastwest;whiteSpace=wrap;html=1;" parent="OBtn1SHJ6FweN6-DnJZZ-56" vertex="1">
          <mxGeometry y="48" width="410" height="32" as="geometry" />
        </mxCell>
        <mxCell id="OBtn1SHJ6FweN6-DnJZZ-78" style="edgeStyle=orthogonalEdgeStyle;rounded=0;orthogonalLoop=1;jettySize=auto;html=1;entryX=0;entryY=0.25;entryDx=0;entryDy=0;endArrow=classic;endFill=0;dashed=1;" parent="1" source="OBtn1SHJ6FweN6-DnJZZ-69" target="OBtn1SHJ6FweN6-DnJZZ-56" edge="1">
          <mxGeometry relative="1" as="geometry" />
        </mxCell>
        <mxCell id="OBtn1SHJ6FweN6-DnJZZ-69" value="&lt;p style=&quot;margin: 4px 0px 0px;&quot;&gt;&lt;b&gt;SocketServerMessageAddedPoint&lt;/b&gt;&lt;br&gt;&lt;/p&gt;" style="swimlane;fontStyle=1;align=center;verticalAlign=top;childLayout=stackLayout;horizontal=1;startSize=26;horizontalStack=0;resizeParent=1;resizeParentMax=0;resizeLast=0;collapsible=1;marginBottom=0;whiteSpace=wrap;html=1;" parent="1" vertex="1">
          <mxGeometry x="100" y="2630" width="410" height="130" as="geometry" />
        </mxCell>
        <mxCell id="OBtn1SHJ6FweN6-DnJZZ-70" value="&lt;p style=&quot;margin:0 0 0 4px;line-height:1.6;&quot;&gt;- gameImmutable: GameImmutable&lt;br&gt;- point: int&lt;br&gt;- player: Player&lt;/p&gt;" style="text;strokeColor=none;fillColor=none;align=left;verticalAlign=top;spacingLeft=4;spacingRight=4;overflow=hidden;rotatable=0;points=[[0,0.5],[1,0.5]];portConstraint=eastwest;whiteSpace=wrap;html=1;" parent="OBtn1SHJ6FweN6-DnJZZ-69" vertex="1">
          <mxGeometry y="26" width="410" height="64" as="geometry" />
        </mxCell>
        <mxCell id="OBtn1SHJ6FweN6-DnJZZ-71" value="" style="line;strokeWidth=1;fillColor=none;align=left;verticalAlign=middle;spacingTop=-1;spacingLeft=3;spacingRight=3;rotatable=0;labelPosition=right;points=[];portConstraint=eastwest;strokeColor=inherit;" parent="OBtn1SHJ6FweN6-DnJZZ-69" vertex="1">
          <mxGeometry y="90" width="410" height="8" as="geometry" />
        </mxCell>
        <mxCell id="OBtn1SHJ6FweN6-DnJZZ-72" value="&lt;p style=&quot;margin:0 0 0 4px;line-height:1.6;&quot;&gt;+ execute(GameListener): void&lt;br&gt;&lt;/p&gt;" style="text;strokeColor=none;fillColor=none;align=left;verticalAlign=top;spacingLeft=4;spacingRight=4;overflow=hidden;rotatable=0;points=[[0,0.5],[1,0.5]];portConstraint=eastwest;whiteSpace=wrap;html=1;" parent="OBtn1SHJ6FweN6-DnJZZ-69" vertex="1">
          <mxGeometry y="98" width="410" height="32" as="geometry" />
        </mxCell>
        <mxCell id="OBtn1SHJ6FweN6-DnJZZ-73" value="" style="endArrow=none;dashed=1;html=1;dashPattern=1 3;strokeWidth=2;rounded=0;entryX=0.573;entryY=0.417;entryDx=0;entryDy=0;entryPerimeter=0;exitX=0.447;exitY=0.417;exitDx=0;exitDy=0;exitPerimeter=0;" parent="1" edge="1">
          <mxGeometry width="50" height="50" relative="1" as="geometry">
            <mxPoint x="540.1099999999999" y="2679.7100000000005" as="sourcePoint" />
            <mxPoint x="669.8900000000001" y="2679.7100000000005" as="targetPoint" />
          </mxGeometry>
        </mxCell>
        <mxCell id="OBtn1SHJ6FweN6-DnJZZ-79" style="edgeStyle=orthogonalEdgeStyle;rounded=0;orthogonalLoop=1;jettySize=auto;html=1;entryX=1;entryY=0.25;entryDx=0;entryDy=0;dashed=1;endArrow=classic;endFill=0;" parent="1" source="OBtn1SHJ6FweN6-DnJZZ-74" target="OBtn1SHJ6FweN6-DnJZZ-56" edge="1">
          <mxGeometry relative="1" as="geometry" />
        </mxCell>
        <mxCell id="OBtn1SHJ6FweN6-DnJZZ-74" value="&lt;p style=&quot;margin: 4px 0px 0px;&quot;&gt;&lt;b&gt;SocketServerMessageAddedPoint&lt;/b&gt;&lt;br&gt;&lt;/p&gt;" style="swimlane;fontStyle=1;align=center;verticalAlign=top;childLayout=stackLayout;horizontal=1;startSize=26;horizontalStack=0;resizeParent=1;resizeParentMax=0;resizeLast=0;collapsible=1;marginBottom=0;whiteSpace=wrap;html=1;" parent="1" vertex="1">
          <mxGeometry x="690" y="2630" width="410" height="120" as="geometry" />
        </mxCell>
        <mxCell id="OBtn1SHJ6FweN6-DnJZZ-75" value="&lt;p style=&quot;margin:0 0 0 4px;line-height:1.6;&quot;&gt;- nickname: ArrayList&amp;lt;String&amp;gt;&lt;br&gt;- gameImmutable: GameImmutable&lt;/p&gt;" style="text;strokeColor=none;fillColor=none;align=left;verticalAlign=top;spacingLeft=4;spacingRight=4;overflow=hidden;rotatable=0;points=[[0,0.5],[1,0.5]];portConstraint=eastwest;whiteSpace=wrap;html=1;" parent="OBtn1SHJ6FweN6-DnJZZ-74" vertex="1">
          <mxGeometry y="26" width="410" height="54" as="geometry" />
        </mxCell>
        <mxCell id="OBtn1SHJ6FweN6-DnJZZ-76" value="" style="line;strokeWidth=1;fillColor=none;align=left;verticalAlign=middle;spacingTop=-1;spacingLeft=3;spacingRight=3;rotatable=0;labelPosition=right;points=[];portConstraint=eastwest;strokeColor=inherit;" parent="OBtn1SHJ6FweN6-DnJZZ-74" vertex="1">
          <mxGeometry y="80" width="410" height="8" as="geometry" />
        </mxCell>
        <mxCell id="OBtn1SHJ6FweN6-DnJZZ-77" value="&lt;p style=&quot;margin:0 0 0 4px;line-height:1.6;&quot;&gt;+ execute(GameListener): void&lt;br&gt;&lt;/p&gt;" style="text;strokeColor=none;fillColor=none;align=left;verticalAlign=top;spacingLeft=4;spacingRight=4;overflow=hidden;rotatable=0;points=[[0,0.5],[1,0.5]];portConstraint=eastwest;whiteSpace=wrap;html=1;" parent="OBtn1SHJ6FweN6-DnJZZ-74" vertex="1">
          <mxGeometry y="88" width="410" height="32" as="geometry" />
        </mxCell>
        <mxCell id="OBtn1SHJ6FweN6-DnJZZ-81" value="&lt;p style=&quot;margin:0px;margin-top:4px;text-align:center;&quot;&gt;&lt;i&gt;&amp;lt;&amp;lt;enumeration&amp;gt;&amp;gt;&lt;/i&gt;&lt;br&gt;&lt;b&gt;MessageType&lt;/b&gt;&lt;br&gt;&lt;/p&gt;&lt;hr size=&quot;1&quot; style=&quot;border-style:solid;&quot;&gt;&lt;p style=&quot;margin:0 0 0 4px;line-height:1.6;&quot;&gt;+ MAIN_CONTROLLER&lt;br&gt;+ PING&lt;br&gt;+ GAME_CONTROLLER&lt;/p&gt;" style="verticalAlign=top;align=left;overflow=fill;html=1;whiteSpace=wrap;" parent="1" vertex="1">
          <mxGeometry x="-20" y="2230" width="170" height="110" as="geometry" />
        </mxCell>
        <mxCell id="OBtn1SHJ6FweN6-DnJZZ-94" style="edgeStyle=orthogonalEdgeStyle;rounded=0;orthogonalLoop=1;jettySize=auto;html=1;exitX=0.5;exitY=0;exitDx=0;exitDy=0;entryX=0;entryY=0.5;entryDx=0;entryDy=0;endArrow=classic;endFill=0;dashed=1;" parent="1" source="OBtn1SHJ6FweN6-DnJZZ-86" target="OBtn1SHJ6FweN6-DnJZZ-91" edge="1">
          <mxGeometry relative="1" as="geometry" />
        </mxCell>
        <mxCell id="OBtn1SHJ6FweN6-DnJZZ-86" value="&lt;p style=&quot;margin: 4px 0px 0px;&quot;&gt;SocketClientMessageDrawCardDisplayed&lt;br&gt;&lt;/p&gt;" style="swimlane;fontStyle=1;align=center;verticalAlign=top;childLayout=stackLayout;horizontal=1;startSize=26;horizontalStack=0;resizeParent=1;resizeParentMax=0;resizeLast=0;collapsible=1;marginBottom=0;whiteSpace=wrap;html=1;" parent="1" vertex="1">
          <mxGeometry x="-940" y="2845" width="420" height="150" as="geometry" />
        </mxCell>
        <mxCell id="OBtn1SHJ6FweN6-DnJZZ-87" value="&lt;p style=&quot;margin:0 0 0 4px;line-height:1.6;&quot;&gt;- deck: DeckType&lt;br&gt;- player: Player&lt;br&gt;- index: int&lt;/p&gt;" style="text;strokeColor=none;fillColor=none;align=left;verticalAlign=top;spacingLeft=4;spacingRight=4;overflow=hidden;rotatable=0;points=[[0,0.5],[1,0.5]];portConstraint=eastwest;whiteSpace=wrap;html=1;" parent="OBtn1SHJ6FweN6-DnJZZ-86" vertex="1">
          <mxGeometry y="26" width="420" height="64" as="geometry" />
        </mxCell>
        <mxCell id="OBtn1SHJ6FweN6-DnJZZ-88" value="" style="line;strokeWidth=1;fillColor=none;align=left;verticalAlign=middle;spacingTop=-1;spacingLeft=3;spacingRight=3;rotatable=0;labelPosition=right;points=[];portConstraint=eastwest;strokeColor=inherit;" parent="OBtn1SHJ6FweN6-DnJZZ-86" vertex="1">
          <mxGeometry y="90" width="420" height="8" as="geometry" />
        </mxCell>
        <mxCell id="OBtn1SHJ6FweN6-DnJZZ-89" value="&lt;p style=&quot;margin:0 0 0 4px;line-height:1.6;&quot;&gt;+ execute(GameControllerInterface): void&lt;br&gt;+ execute(GameListener, MainControllerInterface): GameControllerInterface&lt;br&gt;&lt;/p&gt;" style="text;strokeColor=none;fillColor=none;align=left;verticalAlign=top;spacingLeft=4;spacingRight=4;overflow=hidden;rotatable=0;points=[[0,0.5],[1,0.5]];portConstraint=eastwest;whiteSpace=wrap;html=1;" parent="OBtn1SHJ6FweN6-DnJZZ-86" vertex="1">
          <mxGeometry y="98" width="420" height="52" as="geometry" />
        </mxCell>
        <mxCell id="OBtn1SHJ6FweN6-DnJZZ-107" style="edgeStyle=orthogonalEdgeStyle;rounded=0;orthogonalLoop=1;jettySize=auto;html=1;exitX=0.5;exitY=0;exitDx=0;exitDy=0;entryX=0;entryY=0.5;entryDx=0;entryDy=0;" parent="1" source="OBtn1SHJ6FweN6-DnJZZ-90" target="OBtn1SHJ6FweN6-DnJZZ-81" edge="1">
          <mxGeometry relative="1" as="geometry" />
        </mxCell>
        <mxCell id="OBtn1SHJ6FweN6-DnJZZ-90" value="&lt;p style=&quot;margin: 4px 0px 0px;&quot;&gt;&lt;b&gt;SocketClientGenericMessage&lt;/b&gt;&lt;br&gt;&lt;/p&gt;" style="swimlane;fontStyle=1;align=center;verticalAlign=top;childLayout=stackLayout;horizontal=1;startSize=26;horizontalStack=0;resizeParent=1;resizeParentMax=0;resizeLast=0;collapsible=1;marginBottom=0;whiteSpace=wrap;html=1;" parent="1" vertex="1">
          <mxGeometry x="-655" y="2450" width="420" height="200" as="geometry" />
        </mxCell>
        <mxCell id="OBtn1SHJ6FweN6-DnJZZ-91" value="&lt;p style=&quot;margin:0 0 0 4px;line-height:1.6;&quot;&gt;# nicknameClient: String&lt;br&gt;# messageType: MessageType&lt;br&gt;&lt;/p&gt;" style="text;strokeColor=none;fillColor=none;align=left;verticalAlign=top;spacingLeft=4;spacingRight=4;overflow=hidden;rotatable=0;points=[[0,0.5],[1,0.5]];portConstraint=eastwest;whiteSpace=wrap;html=1;" parent="OBtn1SHJ6FweN6-DnJZZ-90" vertex="1">
          <mxGeometry y="26" width="420" height="44" as="geometry" />
        </mxCell>
        <mxCell id="OBtn1SHJ6FweN6-DnJZZ-92" value="" style="line;strokeWidth=1;fillColor=none;align=left;verticalAlign=middle;spacingTop=-1;spacingLeft=3;spacingRight=3;rotatable=0;labelPosition=right;points=[];portConstraint=eastwest;strokeColor=inherit;" parent="OBtn1SHJ6FweN6-DnJZZ-90" vertex="1">
          <mxGeometry y="70" width="420" height="8" as="geometry" />
        </mxCell>
        <mxCell id="OBtn1SHJ6FweN6-DnJZZ-93" value="&lt;p style=&quot;margin:0 0 0 4px;line-height:1.6;&quot;&gt;+ execute(GameControllerInterface): void&lt;br&gt;+ getMessageType(): MessageType&lt;br&gt;+ setMessageType(MessageType): void&lt;br&gt;+ execute(GameListener, MainControllerInterface): GameControllerInterface&lt;br&gt;+ setNicknameClient(String): void&lt;br&gt;+ getNicknameClient(): String&lt;/p&gt;" style="text;strokeColor=none;fillColor=none;align=left;verticalAlign=top;spacingLeft=4;spacingRight=4;overflow=hidden;rotatable=0;points=[[0,0.5],[1,0.5]];portConstraint=eastwest;whiteSpace=wrap;html=1;" parent="OBtn1SHJ6FweN6-DnJZZ-90" vertex="1">
          <mxGeometry y="78" width="420" height="122" as="geometry" />
        </mxCell>
        <mxCell id="OBtn1SHJ6FweN6-DnJZZ-95" value="" style="endArrow=none;dashed=1;html=1;dashPattern=1 3;strokeWidth=2;rounded=0;entryX=0.365;entryY=0.897;entryDx=0;entryDy=0;entryPerimeter=0;exitX=0.447;exitY=0.417;exitDx=0;exitDy=0;exitPerimeter=0;" parent="1" edge="1">
          <mxGeometry width="50" height="50" relative="1" as="geometry">
            <mxPoint x="-730.36" y="3010.0000000000005" as="sourcePoint" />
            <mxPoint x="-730.2700000000002" y="3099.8299999999995" as="targetPoint" />
          </mxGeometry>
        </mxCell>
        <mxCell id="OBtn1SHJ6FweN6-DnJZZ-105" style="edgeStyle=orthogonalEdgeStyle;rounded=0;orthogonalLoop=1;jettySize=auto;html=1;entryX=1;entryY=0.5;entryDx=0;entryDy=0;endArrow=classic;endFill=0;dashed=1;" parent="1" source="OBtn1SHJ6FweN6-DnJZZ-100" target="OBtn1SHJ6FweN6-DnJZZ-91" edge="1">
          <mxGeometry relative="1" as="geometry" />
        </mxCell>
        <mxCell id="OBtn1SHJ6FweN6-DnJZZ-100" value="&lt;p style=&quot;margin: 4px 0px 0px;&quot;&gt;SocketClientMessageDrawCardDisplayed&lt;br&gt;&lt;/p&gt;" style="swimlane;fontStyle=1;align=center;verticalAlign=top;childLayout=stackLayout;horizontal=1;startSize=26;horizontalStack=0;resizeParent=1;resizeParentMax=0;resizeLast=0;collapsible=1;marginBottom=0;whiteSpace=wrap;html=1;" parent="1" vertex="1">
          <mxGeometry x="-400" y="2845" width="420" height="100" as="geometry" />
        </mxCell>
        <mxCell id="OBtn1SHJ6FweN6-DnJZZ-101" value="&lt;p style=&quot;margin:0 0 0 4px;line-height:1.6;&quot;&gt;&lt;br&gt;&lt;/p&gt;" style="text;strokeColor=none;fillColor=none;align=left;verticalAlign=top;spacingLeft=4;spacingRight=4;overflow=hidden;rotatable=0;points=[[0,0.5],[1,0.5]];portConstraint=eastwest;whiteSpace=wrap;html=1;" parent="OBtn1SHJ6FweN6-DnJZZ-100" vertex="1">
          <mxGeometry y="26" width="420" height="14" as="geometry" />
        </mxCell>
        <mxCell id="OBtn1SHJ6FweN6-DnJZZ-102" value="" style="line;strokeWidth=1;fillColor=none;align=left;verticalAlign=middle;spacingTop=-1;spacingLeft=3;spacingRight=3;rotatable=0;labelPosition=right;points=[];portConstraint=eastwest;strokeColor=inherit;" parent="OBtn1SHJ6FweN6-DnJZZ-100" vertex="1">
          <mxGeometry y="40" width="420" height="8" as="geometry" />
        </mxCell>
        <mxCell id="OBtn1SHJ6FweN6-DnJZZ-103" value="&lt;p style=&quot;margin:0 0 0 4px;line-height:1.6;&quot;&gt;+ execute(GameListener, MainControllerInterface): GameControllerInterface&lt;br&gt;+ execute(GameControllerInterface): void&lt;/p&gt;" style="text;strokeColor=none;fillColor=none;align=left;verticalAlign=top;spacingLeft=4;spacingRight=4;overflow=hidden;rotatable=0;points=[[0,0.5],[1,0.5]];portConstraint=eastwest;whiteSpace=wrap;html=1;" parent="OBtn1SHJ6FweN6-DnJZZ-100" vertex="1">
          <mxGeometry y="48" width="420" height="52" as="geometry" />
        </mxCell>
        <mxCell id="OBtn1SHJ6FweN6-DnJZZ-104" value="" style="endArrow=none;dashed=1;html=1;dashPattern=1 3;strokeWidth=2;rounded=0;exitX=0.447;exitY=0.417;exitDx=0;exitDy=0;exitPerimeter=0;" parent="1" edge="1">
          <mxGeometry width="50" height="50" relative="1" as="geometry">
            <mxPoint x="-190" y="2970.0000000000005" as="sourcePoint" />
            <mxPoint x="-190" y="3040" as="targetPoint" />
          </mxGeometry>
        </mxCell>
        <mxCell id="OBtn1SHJ6FweN6-DnJZZ-110" value="&amp;lt;&amp;lt;sends&amp;gt;&amp;gt;" style="text;html=1;align=center;verticalAlign=middle;resizable=0;points=[];autosize=1;strokeColor=none;fillColor=none;" parent="1" vertex="1">
          <mxGeometry x="-690" y="1730" width="80" height="30" as="geometry" />
        </mxCell>
        <mxCell id="OBtn1SHJ6FweN6-DnJZZ-126" style="edgeStyle=orthogonalEdgeStyle;rounded=0;orthogonalLoop=1;jettySize=auto;html=1;entryX=0.25;entryY=0;entryDx=0;entryDy=0;" parent="1" source="OBtn1SHJ6FweN6-DnJZZ-112" target="OBtn1SHJ6FweN6-DnJZZ-56" edge="1">
          <mxGeometry relative="1" as="geometry">
            <Array as="points">
              <mxPoint x="100" y="1535" />
              <mxPoint x="100" y="2045" />
              <mxPoint x="483" y="2045" />
            </Array>
          </mxGeometry>
        </mxCell>
        <mxCell id="OBtn1SHJ6FweN6-DnJZZ-112" value="&lt;p style=&quot;margin: 4px 0px 0px;&quot;&gt;&lt;b&gt;SocketServer&lt;/b&gt;&lt;br&gt;&lt;/p&gt;" style="swimlane;fontStyle=1;align=center;verticalAlign=top;childLayout=stackLayout;horizontal=1;startSize=26;horizontalStack=0;resizeParent=1;resizeParentMax=0;resizeLast=0;collapsible=1;marginBottom=0;whiteSpace=wrap;html=1;" parent="1" vertex="1">
          <mxGeometry x="215" y="1440" width="410" height="190" as="geometry" />
        </mxCell>
        <mxCell id="OBtn1SHJ6FweN6-DnJZZ-113" value="&lt;p style=&quot;margin:0 0 0 4px;line-height:1.6;&quot;&gt;- clientHandlerPool: ExecutorService&lt;br&gt;- socketServer: ServerSocket&lt;br&gt;&lt;/p&gt;" style="text;strokeColor=none;fillColor=none;align=left;verticalAlign=top;spacingLeft=4;spacingRight=4;overflow=hidden;rotatable=0;points=[[0,0.5],[1,0.5]];portConstraint=eastwest;whiteSpace=wrap;html=1;" parent="OBtn1SHJ6FweN6-DnJZZ-112" vertex="1">
          <mxGeometry y="26" width="410" height="44" as="geometry" />
        </mxCell>
        <mxCell id="OBtn1SHJ6FweN6-DnJZZ-114" value="" style="line;strokeWidth=1;fillColor=none;align=left;verticalAlign=middle;spacingTop=-1;spacingLeft=3;spacingRight=3;rotatable=0;labelPosition=right;points=[];portConstraint=eastwest;strokeColor=inherit;" parent="OBtn1SHJ6FweN6-DnJZZ-112" vertex="1">
          <mxGeometry y="70" width="410" height="8" as="geometry" />
        </mxCell>
        <mxCell id="OBtn1SHJ6FweN6-DnJZZ-115" value="&lt;p style=&quot;margin:0 0 0 4px;line-height:1.6;&quot;&gt;- closeSocketServer(): void&lt;br&gt;+ startSocketServer(int): void&lt;br&gt;- shutdownClientHandlerPool(): void&lt;br&gt;+ run(): void&lt;br&gt;+ stopSocketConnection(): void&lt;br&gt;&lt;/p&gt;" style="text;strokeColor=none;fillColor=none;align=left;verticalAlign=top;spacingLeft=4;spacingRight=4;overflow=hidden;rotatable=0;points=[[0,0.5],[1,0.5]];portConstraint=eastwest;whiteSpace=wrap;html=1;" parent="OBtn1SHJ6FweN6-DnJZZ-112" vertex="1">
          <mxGeometry y="78" width="410" height="112" as="geometry" />
        </mxCell>
        <mxCell id="OBtn1SHJ6FweN6-DnJZZ-125" style="edgeStyle=orthogonalEdgeStyle;rounded=0;orthogonalLoop=1;jettySize=auto;html=1;endArrow=diamondThin;endFill=1;" parent="1" source="OBtn1SHJ6FweN6-DnJZZ-116" target="OBtn1SHJ6FweN6-DnJZZ-112" edge="1">
          <mxGeometry relative="1" as="geometry" />
        </mxCell>
        <mxCell id="OBtn1SHJ6FweN6-DnJZZ-116" value="&lt;p style=&quot;margin: 4px 0px 0px;&quot;&gt;&lt;b&gt;ClientHandler&lt;/b&gt;&lt;br&gt;&lt;/p&gt;" style="swimlane;fontStyle=1;align=center;verticalAlign=top;childLayout=stackLayout;horizontal=1;startSize=26;horizontalStack=0;resizeParent=1;resizeParentMax=0;resizeLast=0;collapsible=1;marginBottom=0;whiteSpace=wrap;html=1;" parent="1" vertex="1">
          <mxGeometry x="140" y="1680" width="560" height="330" as="geometry" />
        </mxCell>
        <mxCell id="OBtn1SHJ6FweN6-DnJZZ-117" value="&lt;hr size=&quot;1&quot;&gt;&lt;p style=&quot;margin:0 0 0 4px;line-height:1.6;&quot;&gt;- messagesQueue: LinkedBlockingQueue&amp;lt;SocketClientGenericMessage&amp;gt;&lt;br&gt;- gameController: GameControllerInterface&lt;br&gt;- gameLogicExecutor: ExecutorService&lt;br&gt;- gameListenerHandlerServer: GameListenerHandlerServer&lt;br&gt;- nicknameClient: String&lt;br&gt;- outputStream: ObjectOutputStream&lt;br&gt;- inputStream: ObjectInputStream&lt;br&gt;- socketClient: Socket&lt;/p&gt;" style="text;strokeColor=none;fillColor=none;align=left;verticalAlign=top;spacingLeft=4;spacingRight=4;overflow=hidden;rotatable=0;points=[[0,0.5],[1,0.5]];portConstraint=eastwest;whiteSpace=wrap;html=1;" parent="OBtn1SHJ6FweN6-DnJZZ-116" vertex="1">
          <mxGeometry y="26" width="560" height="154" as="geometry" />
        </mxCell>
        <mxCell id="OBtn1SHJ6FweN6-DnJZZ-118" value="" style="line;strokeWidth=1;fillColor=none;align=left;verticalAlign=middle;spacingTop=-1;spacingLeft=3;spacingRight=3;rotatable=0;labelPosition=right;points=[];portConstraint=eastwest;strokeColor=inherit;" parent="OBtn1SHJ6FweN6-DnJZZ-116" vertex="1">
          <mxGeometry y="180" width="560" height="8" as="geometry" />
        </mxCell>
        <mxCell id="OBtn1SHJ6FweN6-DnJZZ-119" value="&lt;p style=&quot;margin:0 0 0 4px;line-height:1.6;&quot;&gt;- runGameLogic(): void&lt;br&gt;- shutdownGameLogicExecutor(): void&lt;br&gt;- updateGameControllerAndNickname(GameControllerInterface, SocketClientGenericMessage): void&lt;br&gt;+ run(): void&lt;br&gt;- processMessageForMainController(SocketClientGenericMessage): void&lt;br&gt;+ interruptThread(): void&lt;/p&gt;" style="text;strokeColor=none;fillColor=none;align=left;verticalAlign=top;spacingLeft=4;spacingRight=4;overflow=hidden;rotatable=0;points=[[0,0.5],[1,0.5]];portConstraint=eastwest;whiteSpace=wrap;html=1;" parent="OBtn1SHJ6FweN6-DnJZZ-116" vertex="1">
          <mxGeometry y="188" width="560" height="142" as="geometry" />
        </mxCell>
        <mxCell id="OBtn1SHJ6FweN6-DnJZZ-131" style="edgeStyle=orthogonalEdgeStyle;rounded=0;orthogonalLoop=1;jettySize=auto;html=1;entryX=0.25;entryY=1;entryDx=0;entryDy=0;dashed=1;endArrow=block;endFill=0;" parent="1" source="OBtn1SHJ6FweN6-DnJZZ-120" target="OBtn1SHJ6FweN6-DnJZZ-29" edge="1">
          <mxGeometry relative="1" as="geometry" />
        </mxCell>
        <mxCell id="OBtn1SHJ6FweN6-DnJZZ-120" value="&lt;p style=&quot;margin: 4px 0px 0px;&quot;&gt;&lt;b&gt;GameListenerHandlerServer&lt;/b&gt;&lt;br&gt;&lt;/p&gt;" style="swimlane;fontStyle=1;align=center;verticalAlign=top;childLayout=stackLayout;horizontal=1;startSize=26;horizontalStack=0;resizeParent=1;resizeParentMax=0;resizeLast=0;collapsible=1;marginBottom=0;whiteSpace=wrap;html=1;" parent="1" vertex="1">
          <mxGeometry x="710" y="1255" width="560" height="700" as="geometry" />
        </mxCell>
        <mxCell id="OBtn1SHJ6FweN6-DnJZZ-121" value="&lt;p style=&quot;margin:0 0 0 4px;line-height:1.6;&quot;&gt;- outputStream: ObjectOutputStream&lt;/p&gt;" style="text;strokeColor=none;fillColor=none;align=left;verticalAlign=top;spacingLeft=4;spacingRight=4;overflow=hidden;rotatable=0;points=[[0,0.5],[1,0.5]];portConstraint=eastwest;whiteSpace=wrap;html=1;" parent="OBtn1SHJ6FweN6-DnJZZ-120" vertex="1">
          <mxGeometry y="26" width="560" height="24" as="geometry" />
        </mxCell>
        <mxCell id="OBtn1SHJ6FweN6-DnJZZ-122" value="" style="line;strokeWidth=1;fillColor=none;align=left;verticalAlign=middle;spacingTop=-1;spacingLeft=3;spacingRight=3;rotatable=0;labelPosition=right;points=[];portConstraint=eastwest;strokeColor=inherit;" parent="OBtn1SHJ6FweN6-DnJZZ-120" vertex="1">
          <mxGeometry y="50" width="560" height="8" as="geometry" />
        </mxCell>
        <mxCell id="OBtn1SHJ6FweN6-DnJZZ-123" value="&lt;p style=&quot;margin:0 0 0 4px;line-height:1.6;&quot;&gt;+ invalidCoordinates(GameImmutable, int, int): void&lt;br&gt;+ canNotPlaceCard(GameImmutable, String): void&lt;br&gt;+ cardNotAddedToHand(GameImmutable, String): void&lt;br&gt;+ nextTurn(GameImmutable): void&lt;br&gt;+ positionedStarterCardIntoCodex(GameImmutable, String): void&lt;br&gt;+ deckHasNoCards(GameImmutable, ArrayList&amp;lt;Card&amp;gt;): void&lt;br&gt;+ gameCreated(GameImmutable): void&lt;br&gt;+ gameEnded(GameImmutable): void&lt;br&gt;+ objectiveCardNotChosen(GameImmutable): void&lt;br&gt;+ addedPoint(GameImmutable, Player, int): void&lt;br&gt;+ sentChatMessage(GameImmutable, ChatMessage): void&lt;br&gt;+ joinUnableGameFull(GameImmutable, Player): void&lt;br&gt;+ onlyOnePlayerConnected(GameImmutable, int): void&lt;br&gt;+ endGameConditionsReached(GameImmutable): void&lt;br&gt;- completeTransmission(): void&lt;br&gt;+ playerJoined(GameImmutable): void&lt;br&gt;+ indexNotValid(GameImmutable, int): void&lt;br&gt;+ playerReconnected(GameImmutable, String): void&lt;br&gt;+ joinUnableNicknameAlreadyInUse(Player): void&lt;br&gt;+ winnerDeclared(GameImmutable, ArrayList&amp;lt;String&amp;gt;): void&lt;br&gt;+ positionedCardIntoCodex(GameImmutable, int, int): void&lt;br&gt;+ addedPointObjective(GameImmutable, int): void&lt;br&gt;+ lastCircle(GameImmutable): void&lt;br&gt;+ gameStarted(GameImmutable): void&lt;br&gt;+ gameSizeUpdated(GameImmutable, int): void&lt;br&gt;+ drawCard(GameImmutable, String): void&lt;br&gt;+ noGameToReconnect(GameImmutable, String): void&lt;br&gt;+ playerLeft(GameImmutable, String): void&lt;br&gt;+ requirementsPlacementNotRespected(GameImmutable, ArrayList&amp;lt;Value&amp;gt;): void&lt;br&gt;+ cardAddedToHand(GameImmutable, Card): void&lt;br&gt;+ gameIdNotExists(int): void&lt;br&gt;+ objectiveCardChosen(GameImmutable, CardObjective, String): void&lt;br&gt;+ playerDisconnected(GameImmutable, String): void&lt;/p&gt;" style="text;strokeColor=none;fillColor=none;align=left;verticalAlign=top;spacingLeft=4;spacingRight=4;overflow=hidden;rotatable=0;points=[[0,0.5],[1,0.5]];portConstraint=eastwest;whiteSpace=wrap;html=1;" parent="OBtn1SHJ6FweN6-DnJZZ-120" vertex="1">
          <mxGeometry y="58" width="560" height="642" as="geometry" />
        </mxCell>
        <mxCell id="OBtn1SHJ6FweN6-DnJZZ-127" value="&amp;lt;&amp;lt;sends&amp;gt;&amp;gt;" style="text;html=1;align=center;verticalAlign=middle;resizable=0;points=[];autosize=1;strokeColor=none;fillColor=none;" parent="1" vertex="1">
          <mxGeometry x="110" y="1510" width="80" height="30" as="geometry" />
        </mxCell>
        <mxCell id="OBtn1SHJ6FweN6-DnJZZ-128" style="edgeStyle=orthogonalEdgeStyle;rounded=0;orthogonalLoop=1;jettySize=auto;html=1;entryX=-0.001;entryY=0.347;entryDx=0;entryDy=0;entryPerimeter=0;" parent="1" source="OBtn1SHJ6FweN6-DnJZZ-112" target="OBtn1SHJ6FweN6-DnJZZ-123" edge="1">
          <mxGeometry relative="1" as="geometry" />
        </mxCell>
        <mxCell id="OBtn1SHJ6FweN6-DnJZZ-135" value="listeners" style="shape=umlFrame;whiteSpace=wrap;html=1;pointerEvents=0;width=90;height=40;fillColor=#fad9d5;strokeColor=#ae4132;" parent="1" vertex="1">
          <mxGeometry x="1380" y="430" width="1460" height="1160" as="geometry" />
        </mxCell>
        <mxCell id="OBtn1SHJ6FweN6-DnJZZ-136" value="view" style="shape=umlFrame;whiteSpace=wrap;html=1;pointerEvents=0;width=90;height=40;fillColor=#fad7ac;strokeColor=#b46504;" parent="1" vertex="1">
          <mxGeometry x="1740" y="1630" width="850" height="990" as="geometry" />
        </mxCell>
        <mxCell id="OBtn1SHJ6FweN6-DnJZZ-143" style="edgeStyle=orthogonalEdgeStyle;rounded=0;orthogonalLoop=1;jettySize=auto;html=1;entryX=0.75;entryY=1;entryDx=0;entryDy=0;dashed=1;endArrow=block;endFill=0;" parent="1" source="OBtn1SHJ6FweN6-DnJZZ-137" target="OBtn1SHJ6FweN6-DnJZZ-29" edge="1">
          <mxGeometry relative="1" as="geometry" />
        </mxCell>
        <mxCell id="OBtn1SHJ6FweN6-DnJZZ-137" value="&lt;b&gt;Flow&lt;/b&gt;" style="swimlane;fontStyle=1;align=center;verticalAlign=top;childLayout=stackLayout;horizontal=1;startSize=26;horizontalStack=0;resizeParent=1;resizeParentMax=0;resizeLast=0;collapsible=1;marginBottom=0;whiteSpace=wrap;html=1;" parent="1" vertex="1">
          <mxGeometry x="1940" y="1790" width="440" height="580" as="geometry" />
        </mxCell>
        <mxCell id="OBtn1SHJ6FweN6-DnJZZ-138" value="&lt;p style=&quot;margin:0 0 0 4px;line-height:1.6;&quot;&gt;# latestEvents: List&amp;lt;String&amp;gt;&lt;br&gt;- ended: boolean&lt;br&gt;~ lastEvent: Event&lt;br&gt;- events: EventList&lt;br&gt;- lastPlayerReconnected: String&lt;br&gt;# inputReader: InputReader&lt;br&gt;- clientActions: ClientAction&lt;br&gt;- ui: UI&lt;br&gt;- row: int&lt;br&gt;- col: int&lt;br&gt;- gameImmutable: GameImmutable&lt;br&gt;- nickname: String&lt;br&gt;- frontCard: boolean&lt;br&gt;# inputProcessor: InputProcessor&lt;br&gt;&lt;/p&gt;" style="text;strokeColor=none;fillColor=none;align=left;verticalAlign=top;spacingLeft=4;spacingRight=4;overflow=hidden;rotatable=0;points=[[0,0.5],[1,0.5]];portConstraint=eastwest;whiteSpace=wrap;html=1;" parent="OBtn1SHJ6FweN6-DnJZZ-137" vertex="1">
          <mxGeometry y="26" width="440" height="274" as="geometry" />
        </mxCell>
        <mxCell id="OBtn1SHJ6FweN6-DnJZZ-139" value="" style="line;strokeWidth=1;fillColor=none;align=left;verticalAlign=middle;spacingTop=-1;spacingLeft=3;spacingRight=3;rotatable=0;labelPosition=right;points=[];portConstraint=eastwest;strokeColor=inherit;" parent="OBtn1SHJ6FweN6-DnJZZ-137" vertex="1">
          <mxGeometry y="300" width="440" height="8" as="geometry" />
        </mxCell>
        <mxCell id="OBtn1SHJ6FweN6-DnJZZ-140" value="&lt;p style=&quot;margin:0 0 0 4px;line-height:1.6;&quot;&gt;- handlePlayerReconnection(Event): void&lt;br&gt;&lt;/p&gt;&lt;p style=&quot;margin:0 0 0 4px;line-height:1.6;&quot;&gt;&lt;span style=&quot;background-color: initial;&quot;&gt;- statusNotInAGame(Event): void&lt;/span&gt;&lt;/p&gt;&lt;p style=&quot;margin:0 0 0 4px;line-height:1.6;&quot;&gt;- processEvent(Event): void&lt;br&gt;&lt;/p&gt;&lt;p style=&quot;margin:0 0 0 4px;line-height:1.6;&quot;&gt;- updateGameStateBasedOnModel(Event): void&lt;br&gt;&lt;/p&gt;&lt;p style=&quot;margin:0 0 0 4px;line-height:1.6;&quot;&gt;- statusRunning(Event): void&lt;br&gt;&lt;/p&gt;&lt;p style=&quot;margin:0 0 0 4px;line-height:1.6;&quot;&gt;- askGameSize(GameImmutable): void&lt;br&gt;&lt;/p&gt;&lt;p style=&quot;margin:0 0 0 4px;line-height:1.6;&quot;&gt;- askSelectGame(): boolean&lt;br&gt;&lt;/p&gt;&lt;p style=&quot;margin:0 0 0 4px;line-height:1.6;&quot;&gt;- askNickname(): void&lt;br&gt;&lt;/p&gt;&lt;p style=&quot;margin:0 0 0 4px;line-height:1.6;&quot;&gt;- statusEnded(Event): void&lt;br&gt;&lt;/p&gt;&lt;p style=&quot;margin:0 0 0 4px;line-height:1.6;&quot;&gt;- askGameId(): Integer&lt;br&gt;&lt;/p&gt;&lt;p style=&quot;margin:0 0 0 4px;line-height:1.6;&quot;&gt;- statusWait(Event): void&lt;br&gt;&lt;/p&gt;&lt;p style=&quot;margin:0 0 0 4px;line-height:1.6;&quot;&gt;+ run(): void&lt;br&gt;&lt;/p&gt;&lt;p style=&quot;margin:0 0 0 4px;line-height:1.6;&quot;&gt;+ youLeft(): void&lt;br&gt;&lt;/p&gt;&lt;p style=&quot;margin:0 0 0 4px;line-height:1.6;&quot;&gt;...inherited methods&lt;/p&gt;" style="text;strokeColor=none;fillColor=none;align=left;verticalAlign=top;spacingLeft=4;spacingRight=4;overflow=hidden;rotatable=0;points=[[0,0.5],[1,0.5]];portConstraint=eastwest;whiteSpace=wrap;html=1;" parent="OBtn1SHJ6FweN6-DnJZZ-137" vertex="1">
          <mxGeometry y="308" width="440" height="272" as="geometry" />
        </mxCell>
        <mxCell id="OBtn1SHJ6FweN6-DnJZZ-142" value="ui" style="shape=umlFrame;whiteSpace=wrap;html=1;pointerEvents=0;width=90;height=40;fillColor=#b0e3e6;strokeColor=#0e8088;" parent="1" vertex="1">
          <mxGeometry x="1920" y="1710" width="480" height="740" as="geometry" />
        </mxCell>
        <mxCell id="OBtn1SHJ6FweN6-DnJZZ-144" style="edgeStyle=orthogonalEdgeStyle;rounded=0;orthogonalLoop=1;jettySize=auto;html=1;exitX=0;exitY=0.5;exitDx=0;exitDy=0;entryX=1;entryY=0.25;entryDx=0;entryDy=0;dashed=1;endArrow=block;endFill=0;" parent="1" source="OBtn1SHJ6FweN6-DnJZZ-138" target="OBtn1SHJ6FweN6-DnJZZ-21" edge="1">
          <mxGeometry relative="1" as="geometry">
            <Array as="points">
              <mxPoint x="1340" y="1953" />
              <mxPoint x="1340" y="1140" />
            </Array>
          </mxGeometry>
        </mxCell>
      </root>
    </mxGraphModel>
  </diagram>
</mxfile>
